# xmcd
#
# Track frame offsets:
#	150
#	14088
#	25443
#	38027
#	51582
#	59382
#	70565
#	82074
#	92215
#	103366
#	114543
#	122793
#	134253
#	146031
#	160857
#	172165
#
# Disc length: 2487
#
# Revision: 2
# Processed by: cddbd v1.5.1PL0 Copyright (c) Steve Scherf et al.
# Submitted via: audiograbber 1.82.02
# Normalized: r1:DSETVAR1
#
DISCID=f209b510
DTITLE=Various Artist - Country Superstars CD 1
DYEAR=1900
DGENRE=Country
TTITLE0=George Jones - A Good Year For The Roses
TTITLE1=George Jones - I Can't Change Overnight
TTITLE2=George Jones - She Thinks I Still Care
TTITLE3=George Jones - Cold, Cold Heart
TTITLE4=George Jones - Jambalaya
TTITLE5=George Jones - Once A Day
TTITLE6=George Jones - White Lightening
TTITLE7=George Jones - The Race Is On
TTITLE8=Don Gibson - Sea Of A Heartbreak
TTITLE9=Don Gibson - Oh, Lonesome Me
TTITLE10=Don Gibson - Blue Blue Day
TTITLE11=Don Gibson - Give Myself A Party
TTITLE12=Don Gibson - I Can't Stop Loving You
TTITLE13=Don Gibson - Sweet Dreams
TTITLE14=Don Gibson - Country Green
TTITLE15=Don Gibson - Touch The Morning
EXTD=
EXTT0=
EXTT1=
EXTT2=
EXTT3=
EXTT4=
EXTT5=
EXTT6=
EXTT7=
EXTT8=
EXTT9=
EXTT10=
EXTT11=
EXTT12=
EXTT13=
EXTT14=
EXTT15=
PLAYORDER=
